<svg width="54" height="54" viewBox="0 0 54 54" fill="none" xmlns="http://www.w3.org/2000/svg">
<path d="M45.8 7.76014C43.3548 5.29109 40.4427 3.33339 37.2334 2.00111C34.024 0.668831 30.5816 -0.0113704 27.1067 0.000141813C12.5467 0.000141813 0.680009 11.8668 0.680009 26.4268C0.680009 31.0935 1.90667 35.6268 4.20001 39.6268L0.466675 53.3335L14.4667 49.6535C18.3333 51.7601 22.68 52.8801 27.1067 52.8801C41.6667 52.8801 53.5333 41.0135 53.5333 26.4535C53.5333 19.3868 50.7867 12.7468 45.8 7.76014ZM27.1067 48.4001C23.16 48.4001 19.2933 47.3335 15.9067 45.3335L15.1067 44.8535L6.78667 47.0401L9.00001 38.9335L8.46667 38.1068C6.27347 34.6056 5.10914 30.5582 5.10667 26.4268C5.10667 14.3201 14.9733 4.45348 27.08 4.45348C32.9467 4.45348 38.4667 6.74681 42.6 10.9068C44.647 12.9438 46.2691 15.3669 47.3723 18.0357C48.4755 20.7044 49.0379 23.5657 49.0267 26.4535C49.08 38.5601 39.2133 48.4001 27.1067 48.4001ZM39.16 31.9735C38.4933 31.6535 35.24 30.0535 34.6533 29.8135C34.04 29.6001 33.6133 29.4935 33.16 30.1335C32.7067 30.8001 31.4533 32.2935 31.08 32.7201C30.7067 33.1735 30.3067 33.2268 29.64 32.8801C28.9733 32.5601 26.84 31.8401 24.3333 29.6001C22.36 27.8401 21.0533 25.6801 20.6533 25.0135C20.28 24.3468 20.6 24.0001 20.9467 23.6535C21.24 23.3601 21.6133 22.8801 21.9333 22.5068C22.2533 22.1335 22.3867 21.8401 22.6 21.4135C22.8133 20.9601 22.7067 20.5868 22.5467 20.2668C22.3867 19.9468 21.0533 16.6935 20.52 15.3601C19.9867 14.0801 19.4267 14.2401 19.0267 14.2135H17.7467C17.2933 14.2135 16.6 14.3735 15.9867 15.0401C15.4 15.7068 13.6933 17.3068 13.6933 20.5601C13.6933 23.8135 16.0667 26.9601 16.3867 27.3868C16.7067 27.8401 21.0533 34.5068 27.6667 37.3601C29.24 38.0535 30.4667 38.4535 31.4267 38.7468C33 39.2535 34.44 39.1735 35.5867 39.0135C36.8667 38.8268 39.5067 37.4135 40.04 35.8668C40.6 34.3201 40.6 33.0135 40.4133 32.7201C40.2267 32.4268 39.8267 32.2935 39.16 31.9735Z" fill="white"/>
</svg>
