<svg width="22" height="22" viewBox="0 0 22 22" fill="none" xmlns="http://www.w3.org/2000/svg">
<path d="M10 21.9498V19.9498C7.91667 19.7165 6.129 18.8541 4.637 17.3628C3.145 15.8715 2.28267 14.0838 2.05 11.9998H0.0500031V9.9998H2.05C2.28334 7.91647 3.146 6.1288 4.638 4.6368C6.13 3.1448 7.91734 2.28247 10 2.0498V0.0498047H12V2.0498C14.0833 2.28314 15.871 3.1458 17.363 4.6378C18.855 6.12981 19.7173 7.91714 19.95 9.9998H21.95V11.9998H19.95C19.7167 14.0831 18.8543 15.8708 17.363 17.3628C15.8717 18.8548 14.084 19.7171 12 19.9498V21.9498H10ZM11 17.9998C12.9333 17.9998 14.5833 17.3165 15.95 15.9498C17.3167 14.5831 18 12.9331 18 10.9998C18 9.06647 17.3167 7.41647 15.95 6.0498C14.5833 4.68314 12.9333 3.9998 11 3.9998C9.06667 3.9998 7.41667 4.68314 6.05 6.0498C4.68334 7.41647 4 9.06647 4 10.9998C4 12.9331 4.68334 14.5831 6.05 15.9498C7.41667 17.3165 9.06667 17.9998 11 17.9998ZM11 14.9998C9.9 14.9998 8.95834 14.6081 8.175 13.8248C7.39167 13.0415 7 12.0998 7 10.9998C7 9.8998 7.39167 8.95814 8.175 8.1748C8.95834 7.39147 9.9 6.9998 11 6.9998C12.1 6.9998 13.0417 7.39147 13.825 8.1748C14.6083 8.95814 15 9.8998 15 10.9998C15 12.0998 14.6083 13.0415 13.825 13.8248C13.0417 14.6081 12.1 14.9998 11 14.9998Z" fill="black"/>
</svg>
