<svg width="47" height="47" viewBox="0 0 47 47" fill="none" xmlns="http://www.w3.org/2000/svg">
<path d="M13.875 0.583334H33.125C40.4584 0.583334 46.4167 6.54167 46.4167 13.875V33.125C46.4167 36.6502 45.0163 40.031 42.5237 42.5236C40.031 45.0163 36.6502 46.4167 33.125 46.4167H13.875C6.54171 46.4167 0.583374 40.4583 0.583374 33.125V13.875C0.583374 10.3498 1.98374 6.96904 4.47641 4.47637C6.96908 1.9837 10.3499 0.583334 13.875 0.583334ZM13.4167 5.16667C11.2287 5.16667 9.13025 6.03586 7.58308 7.58304C6.0359 9.13021 5.16671 11.2286 5.16671 13.4167V33.5833C5.16671 38.1437 8.85629 41.8333 13.4167 41.8333H33.5834C35.7714 41.8333 37.8698 40.9641 39.417 39.417C40.9642 37.8698 41.8334 35.7714 41.8334 33.5833V13.4167C41.8334 8.85625 38.1438 5.16667 33.5834 5.16667H13.4167ZM35.5313 8.60417C36.291 8.60417 37.0196 8.90597 37.5569 9.44318C38.0941 9.9804 38.3959 10.709 38.3959 11.4688C38.3959 12.2285 38.0941 12.9571 37.5569 13.4943C37.0196 14.0315 36.291 14.3333 35.5313 14.3333C34.7716 14.3333 34.0429 14.0315 33.5057 13.4943C32.9685 12.9571 32.6667 12.2285 32.6667 11.4688C32.6667 10.709 32.9685 9.9804 33.5057 9.44318C34.0429 8.90597 34.7716 8.60417 35.5313 8.60417ZM23.5 12.0417C26.539 12.0417 29.4534 13.2489 31.6023 15.3977C33.7512 17.5466 34.9584 20.4611 34.9584 23.5C34.9584 26.5389 33.7512 29.4534 31.6023 31.6023C29.4534 33.7511 26.539 34.9583 23.5 34.9583C20.4611 34.9583 17.5466 33.7511 15.3978 31.6023C13.2489 29.4534 12.0417 26.5389 12.0417 23.5C12.0417 20.4611 13.2489 17.5466 15.3978 15.3977C17.5466 13.2489 20.4611 12.0417 23.5 12.0417ZM23.5 16.625C21.6767 16.625 19.928 17.3493 18.6387 18.6386C17.3494 19.928 16.625 21.6766 16.625 23.5C16.625 25.3234 17.3494 27.072 18.6387 28.3614C19.928 29.6507 21.6767 30.375 23.5 30.375C25.3234 30.375 27.0721 29.6507 28.3614 28.3614C29.6507 27.072 30.375 25.3234 30.375 23.5C30.375 21.6766 29.6507 19.928 28.3614 18.6386C27.0721 17.3493 25.3234 16.625 23.5 16.625Z" fill="white"/>
</svg>
