<svg width="21" height="21" viewBox="0 0 21 21" fill="none" xmlns="http://www.w3.org/2000/svg">
<path d="M17.8438 3.1148C16.8886 2.15033 15.7511 1.3856 14.4974 0.86518C13.2438 0.344759 11.8991 0.0790553 10.5417 0.0835522C4.85417 0.0835522 0.218755 4.71897 0.218755 10.4065C0.218755 12.2294 0.697922 14.0002 1.59376 15.5627L0.135422 20.9169L5.60417 19.4794C7.11459 20.3023 8.8125 20.7398 10.5417 20.7398C16.2292 20.7398 20.8646 16.1044 20.8646 10.4169C20.8646 7.65647 19.7917 5.06272 17.8438 3.1148ZM10.5417 18.9898C9 18.9898 7.48959 18.5731 6.16667 17.7919L5.85417 17.6044L2.60417 18.4585L3.46876 15.2919L3.26042 14.969C2.4037 13.6013 1.94889 12.0203 1.94792 10.4065C1.94792 5.6773 5.80209 1.82314 10.5313 1.82314C12.8229 1.82314 14.9792 2.71897 16.5938 4.34397C17.3934 5.13966 18.027 6.0862 18.4579 7.12869C18.8889 8.17117 19.1085 9.28885 19.1042 10.4169C19.125 15.1461 15.2708 18.9898 10.5417 18.9898ZM15.25 12.5731C14.9896 12.4481 13.7188 11.8231 13.4896 11.7294C13.25 11.6461 13.0833 11.6044 12.9063 11.8544C12.7292 12.1148 12.2396 12.6981 12.0938 12.8648C11.9479 13.0419 11.7917 13.0627 11.5313 12.9273C11.2708 12.8023 10.4375 12.5211 9.45834 11.6461C8.6875 10.9586 8.17709 10.1148 8.02084 9.85439C7.875 9.59397 8 9.45855 8.13542 9.32314C8.25 9.20855 8.39584 9.02105 8.52084 8.87522C8.64584 8.72939 8.69792 8.6148 8.78125 8.44814C8.86459 8.27105 8.82292 8.12522 8.76042 8.00022C8.69792 7.87522 8.17709 6.60439 7.96875 6.08355C7.76042 5.58355 7.54167 5.64605 7.38542 5.63564H6.88542C6.70834 5.63564 6.4375 5.69814 6.19792 5.95855C5.96875 6.21897 5.30209 6.84397 5.30209 8.1148C5.30209 9.38564 6.22917 10.6148 6.35417 10.7815C6.47917 10.9586 8.17709 13.5627 10.7604 14.6773C11.375 14.9481 11.8542 15.1044 12.2292 15.219C12.8438 15.4169 13.4063 15.3856 13.8542 15.3231C14.3542 15.2502 15.3854 14.6981 15.5938 14.094C15.8125 13.4898 15.8125 12.9794 15.7396 12.8648C15.6667 12.7502 15.5104 12.6981 15.25 12.5731Z" fill="black"/>
</svg>
