<svg width="33" height="43" viewBox="0 0 33 43" fill="none" xmlns="http://www.w3.org/2000/svg">
<path d="M11.7719 23.8996L13.5088 18.0446L8.7807 14.3013H14.6667L16.5 8.54241L18.3333 14.3013H24.2193L19.4912 18.0446L21.2281 23.8996L16.5 20.3482L11.7719 23.8996ZM33 16.317C33 18.4286 32.614 20.4122 31.8421 22.2679C31.1345 24.0595 30.1374 25.6912 28.8509 27.1629V43L16.5 38.8728L4.14912 43V27.1629C2.86257 25.6912 1.83333 24.0595 1.0614 22.2679C0.353801 20.4122 0 18.4286 0 16.317C0 14.0774 0.418129 11.9658 1.25439 9.98214C2.15497 7.99851 3.34503 6.27083 4.82456 4.79911C6.36842 3.26339 8.13743 2.07961 10.1316 1.24777C12.1257 0.415923 14.2485 0 16.5 0C18.7515 0 20.8743 0.415923 22.8684 1.24777C24.8626 2.07961 26.5994 3.26339 28.0789 4.79911C29.6228 6.27083 30.8129 7.99851 31.6491 9.98214C32.5497 11.9658 33 14.0774 33 16.317ZM16.5 4.03125C14.2485 4.03125 12.1901 4.60714 10.3246 5.75893C8.45906 6.84673 6.94737 8.31845 5.78947 10.1741C4.69591 12.0298 4.14912 14.0774 4.14912 16.317C4.14912 18.6205 4.69591 20.7001 5.78947 22.5558C6.94737 24.4115 8.45906 25.8832 10.3246 26.971C12.1901 28.0588 14.2485 28.6027 16.5 28.6027C18.7515 28.6027 20.8099 28.0588 22.6754 26.971C24.5409 25.8832 26.0205 24.4115 27.114 22.5558C28.2719 20.7001 28.8509 18.6205 28.8509 16.317C28.8509 14.0774 28.2719 12.0298 27.114 10.1741C26.0205 8.31845 24.5409 6.84673 22.6754 5.75893C20.8099 4.60714 18.7515 4.03125 16.5 4.03125Z" fill="black"/>
</svg>
